<?xml version="1.0" encoding="utf-8"?>
<!-- Generator: Adobe Illustrator 19.2.1, SVG Export Plug-In . SVG Version: 6.00 Build 0)  -->
<svg version="1.1" xmlns="http://www.w3.org/2000/svg" xmlns:xlink="http://www.w3.org/1999/xlink" x="0px" y="0px"
	 viewBox="0 0 750 500" style="enable-background:new 0 0 750 500;" xml:space="preserve">
<style type="text/css">
	.st0{fill:url(#SVGID_1_);}
	.st1{opacity:0.43;}
	.st2{fill:url(#SVGID_2_);}
	.st3{fill:url(#SVGID_3_);}
</style>
<g id="BACKGROUND">
	<g>
		<linearGradient id="SVGID_1_" gradientUnits="userSpaceOnUse" x1="375" y1="234.0552" x2="375" y2="-128.4251">
			<stop  offset="0" style="stop-color:#66A8DE"/>
			<stop  offset="0.1715" style="stop-color:#85B9E5"/>
			<stop  offset="0.5657" style="stop-color:#C6DFF3"/>
			<stop  offset="0.8526" style="stop-color:#EFF6FC"/>
			<stop  offset="1" style="stop-color:#FFFFFF"/>
		</linearGradient>
		<rect class="st0" width="750" height="500"/>
		<g class="st1">
			<g>
				
					<linearGradient id="SVGID_2_" gradientUnits="userSpaceOnUse" x1="582.8347" y1="490.9545" x2="253.2604" y2="-90.8861" gradientTransform="matrix(0 1 -1 0 625.218 -124.7821)">
					<stop  offset="0" style="stop-color:#66A8DE"/>
					<stop  offset="0.1715" style="stop-color:#85B9E5"/>
					<stop  offset="0.5657" style="stop-color:#C6DFF3"/>
					<stop  offset="0.8526" style="stop-color:#EFF6FC"/>
					<stop  offset="1" style="stop-color:#FFFFFF"/>
				</linearGradient>
				<path class="st2" d="M0.8,144c-7,2.8,6,5.9,0,9.2v345.8h749.1V377.5c-10.4-1.6-21.2-2.6-32.4-2.9c-17.8-0.5-35.8,0.9-53.4-0.3
					c-17.2-1.2-33.3-4.9-45.7-10.3c-19.1-8.2-27.1-20.8-46.2-29.4c-18.9-8.5-44.7-14-71.5-14.7c-32.3-0.9-71.1,3.5-92.3-7.4
					c-25.2-13,1.5-33.9-12.1-49.9c-14.9-17.5-67.6-20.5-99.1-32.9c-35.4-13.9-39.2-37.4-55.5-57.1c-13.2-16-38.3-30.8-71-39.1
					c-13-3.3-27.3-5.5-42.5-6.4C89,124.7,29.9,132.2,0.8,144z"/>
			</g>
			<g>
				
					<linearGradient id="SVGID_3_" gradientUnits="userSpaceOnUse" x1="164.3484" y1="-32.306" x2="354.3865" y2="199.5136" gradientTransform="matrix(0 1 -1 0 625.218 -124.7821)">
					<stop  offset="0" style="stop-color:#66A8DE"/>
					<stop  offset="0.1715" style="stop-color:#85B9E5"/>
					<stop  offset="0.5657" style="stop-color:#C6DFF3"/>
					<stop  offset="0.8526" style="stop-color:#EFF6FC"/>
					<stop  offset="1" style="stop-color:#FFFFFF"/>
				</linearGradient>
				<path class="st3" d="M749.9-1.9H328.5c-12.1,28.6-0.7,60.3,33.4,82.3c22.9,14.8,54.3,35.5,92.6,37c30.4,1.2,63.1-4.4,87.1-14.2
					c22.8-9.2,32.8-27.1,55.7-35c17-5.8,36.7-0.4,50.9,5.7c49.5,21.2,74.4,58.5,74.6,91.6c0.2,35.3-4.2,76.5,27,109.5
					C753.2,278.5,749.9-1.9,749.9-1.9z"/>
			</g>
		</g>
	</g>
</g>
<g id="OBJECTS">
</g>
<g id="DESIGNED_BY_FREEPIK">
</g>
</svg>
